<svg width="1025" height="1025" viewBox="0 0 1025 1025" fill="none" xmlns="http://www.w3.org/2000/svg">
<path d="M512.737 64.23C265.337 64.23 64.7366 264.83 64.7366 512.23C64.7366 759.63 265.337 960.23 512.737 960.23C760.137 960.23 960.737 759.63 960.737 512.23C960.737 264.83 760.137 64.23 512.737 64.23ZM728.037 401.93C728.337 406.63 728.337 411.53 728.337 416.33C728.337 563.13 616.537 732.23 412.237 732.23C349.237 732.23 290.837 713.93 241.637 682.43C250.637 683.43 259.237 683.83 268.437 683.83C320.437 683.83 368.237 666.23 406.337 636.43C357.537 635.43 316.537 603.43 302.537 559.43C319.637 561.93 335.037 561.93 352.637 557.43C327.509 552.325 304.924 538.678 288.718 518.808C272.512 498.938 263.685 474.071 263.737 448.43V447.03C278.437 455.33 295.737 460.43 313.837 461.13C298.621 450.989 286.142 437.251 277.508 421.133C268.873 405.015 264.349 387.015 264.337 368.73C264.337 348.03 269.737 329.13 279.437 312.73C307.327 347.064 342.13 375.144 381.583 395.147C421.036 415.149 464.257 426.625 508.437 428.83C492.737 353.33 549.137 292.23 616.937 292.23C648.937 292.23 677.737 305.63 698.037 327.23C723.137 322.53 747.137 313.13 768.537 300.53C760.237 326.23 742.837 347.93 719.737 361.63C742.137 359.23 763.737 353.03 783.737 344.33C768.637 366.53 749.737 386.23 728.037 401.93V401.93Z" fill="white"/>
</svg>
