<svg width="1024" height="1024" viewBox="0 0 1024 1024" fill="none" xmlns="http://www.w3.org/2000/svg">
<g clip-path="url(#clip0_41:3)">
<path d="M866.891 186.048C800.491 155.575 730.426 133.827 658.443 121.344C657.791 121.234 657.121 121.329 656.525 121.615C655.929 121.902 655.436 122.366 655.115 122.944C646.091 138.944 636.107 159.872 629.131 176.256C551.538 164.48 472.612 164.48 395.019 176.256C387.237 158.004 378.434 140.205 368.651 122.944C368.323 122.372 367.829 121.913 367.235 121.628C366.641 121.342 365.974 121.243 365.323 121.344C293.323 133.76 223.243 155.52 156.875 186.048C156.307 186.265 155.832 186.672 155.531 187.2C22.7948 385.536 -13.6212 579.008 4.23481 770.048C4.29881 770.944 4.87481 771.84 5.57881 772.416C82.8732 829.671 169.329 873.386 261.259 901.696C261.908 901.901 262.605 901.893 263.25 901.674C263.894 901.456 264.452 901.037 264.843 900.48C284.555 873.6 302.091 845.248 317.195 815.424C317.51 814.81 317.617 814.11 317.502 813.429C317.387 812.749 317.054 812.124 316.555 811.648C316.224 811.335 315.832 811.096 315.403 810.944C287.829 800.347 261.124 787.615 235.531 772.864C234.816 772.459 234.284 771.794 234.046 771.008C233.808 770.221 233.881 769.374 234.251 768.64C234.469 768.163 234.798 767.746 235.211 767.424C240.587 763.392 245.963 759.168 251.083 754.944C251.535 754.58 252.078 754.346 252.653 754.267C253.228 754.188 253.813 754.267 254.347 754.496C421.963 831.04 603.403 831.04 768.971 754.496C769.524 754.256 770.131 754.172 770.729 754.25C771.326 754.329 771.891 754.569 772.363 754.944C777.483 759.168 782.859 763.392 788.235 767.424C788.67 767.742 789.02 768.163 789.253 768.65C789.486 769.137 789.595 769.674 789.569 770.213C789.544 770.752 789.386 771.276 789.108 771.738C788.83 772.201 788.442 772.588 787.979 772.864C762.444 787.75 735.705 800.466 708.043 810.88C707.602 811.039 707.201 811.294 706.869 811.626C706.537 811.958 706.282 812.359 706.123 812.8C705.975 813.227 705.915 813.68 705.948 814.132C705.981 814.583 706.106 815.022 706.315 815.424C721.675 845.184 739.275 873.6 758.603 900.48C758.993 901.037 759.551 901.456 760.196 901.674C760.84 901.893 761.538 901.901 762.187 901.696C854.271 873.473 940.867 829.753 1018.25 772.416C1018.64 772.147 1018.96 771.795 1019.19 771.385C1019.43 770.975 1019.56 770.518 1019.59 770.048C1040.97 549.184 983.819 357.312 868.171 187.264C868.054 186.983 867.88 186.73 867.66 186.52C867.439 186.311 867.177 186.15 866.891 186.048V186.048ZM342.219 653.696C291.723 653.696 250.187 607.36 250.187 550.528C250.187 493.632 290.955 447.296 342.219 447.296C393.867 447.296 435.019 494.016 434.251 550.528C434.251 607.36 393.483 653.696 342.219 653.696ZM682.443 653.696C632.011 653.696 590.411 607.36 590.411 550.528C590.411 493.632 631.179 447.296 682.443 447.296C734.091 447.296 775.307 494.016 774.475 550.528C774.475 607.36 734.091 653.696 682.443 653.696Z" fill="white"/>
</g>
<defs>
<clipPath id="clip0_41:3">
<rect width="1024" height="1024" fill="white"/>
</clipPath>
</defs>
</svg>
